# xmcd CD database file
# Generated: Fri Dec 5 10:16:45 2003 by KSCD
# 
# Track frame offsets:
#       150
#       13901
#       28933
#       42355
#       54731
#       66586
#       79412
#       96438
#       108139
#       119655
#       137806
#       147782
#       162464
#       176656
#       188673
#       201499
#       214704
#       230338
#       242153
#       253854
#       268180
#       283324
#       297283
#       312147
#       325873
#       341928
#
# Disc length: 4755 seconds
#
# Revision: 1
# Processed by: cddbd v1.4PL0 Copyright (c) Steve Scherf et al.
# Submitted via: Kscd 1.3.3
#
DISCID=ab12911a
DTITLE=floyd cramer - number 1
DYEAR=1900
DGENRE=
TTITLE0=number 1
TTITLE1=
TTITLE2=
TTITLE3=
TTITLE4=
TTITLE5=
TTITLE6=
TTITLE7=
TTITLE8=
TTITLE9=
TTITLE10=
TTITLE11=
TTITLE12=
TTITLE13=
TTITLE14=
TTITLE15=
TTITLE16=
TTITLE17=
TTITLE18=
TTITLE19=
TTITLE20=
TTITLE21=
TTITLE22=
TTITLE23=
TTITLE24=
TTITLE25=
EXTD=
EXTT0=
EXTT1=
EXTT2=
EXTT3=
EXTT4=
EXTT5=
EXTT6=
EXTT7=
EXTT8=
EXTT9=
EXTT10=
EXTT11=
EXTT12=
EXTT13=
EXTT14=
EXTT15=
EXTT16=
EXTT17=
EXTT18=
EXTT19=
EXTT20=
EXTT21=
EXTT22=
EXTT23=
EXTT24=
EXTT25=
PLAYORDER=
